<?xml version="1.0" encoding="utf-8"?>
<!-- Generator: Adobe Illustrator 20.1.0, SVG Export Plug-In . SVG Version: 6.00 Build 0)  -->
<svg version="1.1" id="Layer_1" xmlns="http://www.w3.org/2000/svg" xmlns:xlink="http://www.w3.org/1999/xlink" x="0px" y="0px"
	 viewBox="0 0 230 60" style="enable-background:new 0 0 230 60;" xml:space="preserve">
<style type="text/css">
	.st0{fill-rule:evenodd;clip-rule:evenodd;fill:#244895;}
	.st1{fill-rule:evenodd;clip-rule:evenodd;fill:#008EBE;}
	.st2{fill:#008EBE;}
</style>
<g>
	<g>
		<polygon class="st0" points="194.5,4.6 212.3,4.6 208.4,8.5 198.5,8.5 198.5,31 220.9,31 220.9,21.1 224.8,17.2 224.8,34.9 
			194.5,34.9 		"/>
		<polygon class="st1" points="213.6,4.6 224.8,4.6 224.8,15.8 220.9,19.8 220.9,11.3 211,21.2 208.2,18.4 218.1,8.6 209.7,8.6 		
			"/>
	</g>
	<path class="st0" d="M35.6,20.9L35.6,20.9l1.6,3.3h3.6L31.1,4.7l-9.8,19.5h3.6l1.7-3.3H35.6z M28.2,17.7L28.2,17.7h5.7l-2.9-5.8
		L28.2,17.7z M43.9,4.7L43.9,4.7h3.2v16.3h9.8v3.3h-13V4.7z M73.6,4.7L73.6,4.7v3.3h-9.8v4.9h9.8v3.2h-9.8v4.9h9.8v3.3h-13V4.7H73.6
		z M77.3,4.6L77.3,4.6l13,11.7V4.6h3.3v19.5v0v0.1l-13-11.7v11.7h-3.2V4.6z M97.2,4.7L97.2,4.7h16.3v3.3H107v16.3h-3.3V7.9h-6.5V4.7
		z M130.1,4.7L130.1,4.7v3.3h-9.8v4.9h9.8v3.2h-9.8v4.9h9.8v3.3h-13V4.7H130.1z M140.3,20.9L140.3,20.9c0.9,0,1.7-0.2,2.5-0.5
		c0.8-0.3,1.5-0.8,2.1-1.4c0.6-0.6,1.1-1.3,1.4-2.1c0.3-0.8,0.5-1.6,0.5-2.5c0-0.9-0.2-1.7-0.5-2.5c-0.3-0.8-0.8-1.5-1.4-2.1
		c-0.6-0.6-1.3-1.1-2.1-1.4c-0.8-0.3-1.6-0.5-2.5-0.5H137v13H140.3z M133.8,4.7L133.8,4.7h6.5c1.3,0,2.6,0.3,3.8,0.8
		c1.2,0.5,2.2,1.2,3.1,2.1c0.9,0.9,1.6,1.9,2.1,3.1c0.5,1.2,0.8,2.4,0.8,3.8c0,1.3-0.3,2.6-0.8,3.8c-0.5,1.2-1.2,2.2-2.1,3.1
		c-0.9,0.9-1.9,1.6-3.1,2.1c-1.2,0.5-2.4,0.8-3.8,0.8h-6.5V4.7z M162.3,4.7L162.3,4.7c1.4,0,2.6,0.3,3.8,0.8
		c1.2,0.5,2.2,1.2,3.1,2.1l-2.3,2.3c-1.3-1.3-2.8-1.9-4.6-1.9c-1.8,0-3.3,0.6-4.6,1.9c-1.3,1.3-1.9,2.8-1.9,4.6
		c0,1.8,0.6,3.3,1.9,4.6c1.3,1.3,2.8,1.9,4.6,1.9c1,0,1.9-0.2,2.7-0.6c0.8-0.4,1.6-0.9,2.2-1.6v-2.7h-4.9v-3.2h8.2v7
		c-0.5,0.7-1,1.3-1.6,1.8c-0.6,0.6-1.2,1-1.9,1.4c-0.7,0.4-1.4,0.7-2.2,0.9c-0.8,0.2-1.6,0.3-2.4,0.3c-2.7,0-5-1-6.9-2.9
		c-1.9-1.9-2.9-4.2-2.9-6.9c0-2.7,1-5,2.9-6.9C157.3,5.6,159.6,4.7,162.3,4.7z M187.2,4.7L187.2,4.7v3.3h-9.8v4.9h9.8v3.2h-9.8v4.9
		h9.8v3.3h-13V4.7H187.2z M5,4.7h16.3v3.3h-6.5v16.3h-3.3V7.9H5V4.7z"/>
	<rect x="5" y="31.6" class="st1" width="182.1" height="3.3"/>
	<g>
		<path class="st2" d="M5.2,43.1h1v8.8h3.7v0.9H5.2V43.1z"/>
		<path class="st2" d="M11.7,42.6c0.2,0,0.4,0.1,0.5,0.2c0.1,0.1,0.2,0.3,0.2,0.5c0,0.2-0.1,0.4-0.2,0.5c-0.1,0.1-0.3,0.2-0.5,0.2
			c-0.2,0-0.4-0.1-0.5-0.2c-0.1-0.1-0.2-0.3-0.2-0.5c0-0.2,0.1-0.4,0.2-0.5C11.3,42.7,11.5,42.6,11.7,42.6z M11.2,45.6h0.9v7.2h-0.9
			V45.6z"/>
		<path class="st2" d="M13.5,45.6h1l2.4,5.2l2.4-5.2h1L17,52.7h-0.2L13.5,45.6z"/>
		<path class="st2" d="M27.8,50.4l0.8,0.4c-0.3,0.5-0.5,0.9-0.9,1.2c-0.3,0.3-0.7,0.5-1.1,0.7c-0.4,0.2-0.9,0.2-1.4,0.2
			c-1.2,0-2.1-0.4-2.7-1.1c-0.7-0.8-1-1.6-1-2.6c0-0.9,0.3-1.7,0.8-2.4c0.7-0.9,1.7-1.4,2.8-1.4c1.2,0,2.2,0.5,2.9,1.4
			c0.5,0.7,0.8,1.5,0.8,2.4h-6.4c0,0.8,0.3,1.5,0.8,2c0.5,0.5,1.1,0.8,1.9,0.8c0.4,0,0.7-0.1,1.1-0.2c0.3-0.1,0.6-0.3,0.9-0.5
			C27.3,51.2,27.5,50.8,27.8,50.4z M27.8,48.4c-0.1-0.5-0.3-0.9-0.5-1.2c-0.2-0.3-0.5-0.5-0.9-0.7c-0.4-0.2-0.8-0.3-1.2-0.3
			c-0.7,0-1.3,0.2-1.8,0.7c-0.4,0.3-0.6,0.8-0.8,1.5H27.8z"/>
		<path class="st2" d="M42,49.2l0.7,0.7c-0.4,0.4-0.8,0.7-1.2,1c0.3,0.2,0.6,0.6,1,1c0.3,0.3,0.6,0.6,0.9,0.9H42l-1.3-1.3
			c-0.8,0.6-1.5,1.1-2,1.3c-0.5,0.2-1,0.3-1.6,0.3c-0.7,0-1.3-0.2-1.8-0.6c-0.5-0.4-0.7-1-0.7-1.6c0-0.5,0.2-1,0.5-1.5
			c0.3-0.5,0.9-1.1,1.9-1.8c-0.5-0.6-0.9-1.1-1-1.4c-0.2-0.3-0.2-0.6-0.2-0.9c0-0.5,0.2-0.9,0.6-1.2c0.4-0.4,1-0.6,1.6-0.6
			c0.4,0,0.8,0.1,1.1,0.2c0.3,0.2,0.6,0.4,0.8,0.7c0.2,0.3,0.3,0.6,0.3,0.9c0,0.3-0.1,0.7-0.3,1c-0.2,0.4-0.7,0.8-1.4,1.4l1.5,1.5
			l1,1C41.3,49.8,41.7,49.4,42,49.2z M37.6,48.2c-0.8,0.6-1.4,1.1-1.6,1.5c-0.3,0.4-0.4,0.7-0.4,1c0,0.4,0.2,0.7,0.5,1
			c0.3,0.3,0.7,0.4,1.1,0.4c0.3,0,0.7-0.1,1-0.2c0.5-0.2,1.1-0.6,1.8-1.1l-1.5-1.6C38.2,48.9,37.9,48.6,37.6,48.2z M37.7,46.9
			c0.5-0.4,0.8-0.7,1.1-1.1c0.2-0.3,0.3-0.5,0.3-0.7c0-0.2-0.1-0.4-0.3-0.6c-0.2-0.2-0.5-0.2-0.9-0.2c-0.3,0-0.6,0.1-0.8,0.3
			c-0.2,0.2-0.3,0.4-0.3,0.6c0,0.2,0,0.3,0.1,0.5C37,46,37.3,46.5,37.7,46.9z"/>
		<path class="st2" d="M48.6,43.1h1v9.7h-1V43.1z"/>
		<path class="st2" d="M51.8,45.6h0.9v1.3c0.4-0.5,0.8-0.9,1.2-1.1c0.4-0.2,0.9-0.4,1.5-0.4c0.5,0,1,0.1,1.4,0.4
			c0.4,0.3,0.7,0.6,0.9,1.1c0.2,0.5,0.3,1.2,0.3,2.2v3.7h-0.9v-3.4c0-0.8,0-1.4-0.1-1.7c-0.1-0.5-0.3-0.8-0.6-1.1
			c-0.3-0.2-0.7-0.4-1.2-0.4c-0.6,0-1.1,0.2-1.5,0.6c-0.4,0.4-0.7,0.8-0.9,1.4c-0.1,0.4-0.1,1-0.1,1.9v2.6h-0.9V45.6z"/>
		<path class="st2" d="M60.9,42.9h0.9v2.7h1.5v0.8h-1.5v6.4h-0.9v-6.4h-1.3v-0.8h1.3V42.9z"/>
		<path class="st2" d="M70.8,50.4l0.8,0.4c-0.3,0.5-0.5,0.9-0.9,1.2c-0.3,0.3-0.7,0.5-1.1,0.7c-0.4,0.2-0.9,0.2-1.4,0.2
			c-1.2,0-2.1-0.4-2.7-1.1c-0.7-0.8-1-1.6-1-2.6c0-0.9,0.3-1.7,0.8-2.4c0.7-0.9,1.7-1.4,2.8-1.4c1.2,0,2.2,0.5,2.9,1.4
			c0.5,0.7,0.8,1.5,0.8,2.4h-6.4c0,0.8,0.3,1.5,0.8,2c0.5,0.5,1.1,0.8,1.9,0.8c0.4,0,0.7-0.1,1.1-0.2c0.3-0.1,0.6-0.3,0.9-0.5
			C70.3,51.2,70.6,50.8,70.8,50.4z M70.8,48.4c-0.1-0.5-0.3-0.9-0.5-1.2c-0.2-0.3-0.5-0.5-0.9-0.7c-0.4-0.2-0.8-0.3-1.2-0.3
			c-0.7,0-1.3,0.2-1.8,0.7c-0.4,0.3-0.6,0.8-0.8,1.5H70.8z"/>
		<path class="st2" d="M73.3,45.6h0.9v1c0.3-0.4,0.6-0.7,0.9-0.9c0.3-0.2,0.6-0.3,1-0.3c0.3,0,0.5,0.1,0.8,0.2l-0.5,0.8
			c-0.2-0.1-0.4-0.1-0.5-0.1c-0.3,0-0.6,0.1-0.9,0.4c-0.3,0.3-0.5,0.6-0.7,1.2c-0.1,0.4-0.2,1.2-0.2,2.5v2.4h-0.9V45.6z"/>
		<path class="st2" d="M85,45.6v7.2h-0.9v-1.2c-0.4,0.5-0.8,0.8-1.3,1.1c-0.5,0.2-1,0.4-1.6,0.4c-1,0-1.9-0.4-2.6-1.1
			c-0.7-0.7-1.1-1.6-1.1-2.7c0-1,0.4-1.9,1.1-2.6c0.7-0.7,1.6-1.1,2.6-1.1c0.6,0,1.1,0.1,1.6,0.4c0.5,0.3,0.9,0.6,1.3,1.1v-1.3H85z
			 M81.3,46.3c-0.5,0-1,0.1-1.4,0.4c-0.4,0.3-0.8,0.6-1,1.1c-0.3,0.5-0.4,0.9-0.4,1.4c0,0.5,0.1,1,0.4,1.4c0.3,0.5,0.6,0.8,1,1.1
			c0.4,0.3,0.9,0.4,1.4,0.4c0.5,0,1-0.1,1.4-0.4c0.5-0.3,0.8-0.6,1-1c0.2-0.4,0.4-0.9,0.4-1.5c0-0.8-0.3-1.5-0.8-2.1
			C82.8,46.6,82.1,46.3,81.3,46.3z"/>
		<path class="st2" d="M94.1,47.1l-0.7,0.5c-0.6-0.8-1.5-1.3-2.6-1.3c-0.9,0-1.6,0.3-2.2,0.8c-0.6,0.6-0.9,1.2-0.9,2
			c0,0.5,0.1,1,0.4,1.5c0.3,0.5,0.6,0.8,1.1,1.1c0.5,0.3,1,0.4,1.6,0.4c1.1,0,1.9-0.4,2.6-1.3l0.7,0.5c-0.3,0.5-0.8,0.9-1.4,1.2
			c-0.6,0.3-1.2,0.4-2,0.4c-1.1,0-2.1-0.4-2.8-1.1c-0.7-0.7-1.1-1.6-1.1-2.6c0-0.7,0.2-1.3,0.5-1.9c0.3-0.6,0.8-1.1,1.4-1.4
			c0.6-0.3,1.3-0.5,2-0.5c0.5,0,0.9,0.1,1.4,0.2c0.4,0.1,0.8,0.3,1.1,0.6C93.6,46.4,93.9,46.7,94.1,47.1z"/>
		<path class="st2" d="M96.8,42.9h0.9v2.7h1.5v0.8h-1.5v6.4h-0.9v-6.4h-1.3v-0.8h1.3V42.9z"/>
		<path class="st2" d="M101,42.6c0.2,0,0.4,0.1,0.5,0.2c0.1,0.1,0.2,0.3,0.2,0.5c0,0.2-0.1,0.4-0.2,0.5c-0.1,0.1-0.3,0.2-0.5,0.2
			c-0.2,0-0.4-0.1-0.5-0.2c-0.1-0.1-0.2-0.3-0.2-0.5c0-0.2,0.1-0.4,0.2-0.5C100.6,42.7,100.8,42.6,101,42.6z M100.5,45.6h0.9v7.2
			h-0.9V45.6z"/>
		<path class="st2" d="M102.8,45.6h1l2.4,5.2l2.4-5.2h1l-3.3,7.2h-0.2L102.8,45.6z"/>
		<path class="st2" d="M117.1,50.4l0.8,0.4c-0.3,0.5-0.5,0.9-0.9,1.2c-0.3,0.3-0.7,0.5-1.1,0.7c-0.4,0.2-0.9,0.2-1.4,0.2
			c-1.2,0-2.1-0.4-2.7-1.1c-0.7-0.8-1-1.6-1-2.6c0-0.9,0.3-1.7,0.8-2.4c0.7-0.9,1.7-1.4,2.8-1.4c1.2,0,2.2,0.5,2.9,1.4
			c0.5,0.7,0.8,1.5,0.8,2.4h-6.4c0,0.8,0.3,1.5,0.8,2c0.5,0.5,1.1,0.8,1.9,0.8c0.4,0,0.7-0.1,1.1-0.2c0.3-0.1,0.6-0.3,0.9-0.5
			C116.5,51.2,116.8,50.8,117.1,50.4z M117.1,48.4c-0.1-0.5-0.3-0.9-0.5-1.2c-0.2-0.3-0.5-0.5-0.9-0.7c-0.4-0.2-0.8-0.3-1.2-0.3
			c-0.7,0-1.3,0.2-1.8,0.7c-0.4,0.3-0.6,0.8-0.8,1.5H117.1z"/>
		<path class="st2" d="M123.9,52.7v-9.7h2c1.4,0,2.5,0.1,3.2,0.3c0.9,0.3,1.7,0.9,2.2,1.7c0.5,0.8,0.8,1.8,0.8,2.9
			c0,1-0.2,1.8-0.6,2.6c-0.4,0.7-1,1.3-1.6,1.6c-0.7,0.4-1.6,0.5-2.8,0.5H123.9z M124.9,51.8h1.1c1.3,0,2.3-0.1,2.8-0.2
			c0.7-0.2,1.3-0.7,1.7-1.3c0.4-0.6,0.6-1.4,0.6-2.3c0-0.9-0.2-1.7-0.7-2.4c-0.5-0.7-1.1-1.1-1.9-1.4c-0.6-0.2-1.6-0.3-3-0.3h-0.7
			V51.8z"/>
		<path class="st2" d="M134.2,42.6c0.2,0,0.4,0.1,0.5,0.2c0.1,0.1,0.2,0.3,0.2,0.5c0,0.2-0.1,0.4-0.2,0.5c-0.1,0.1-0.3,0.2-0.5,0.2
			c-0.2,0-0.4-0.1-0.5-0.2c-0.1-0.1-0.2-0.3-0.2-0.5c0-0.2,0.1-0.4,0.2-0.5C133.9,42.7,134,42.6,134.2,42.6z M133.8,45.6h0.9v7.2
			h-0.9V45.6z"/>
		<path class="st2" d="M142.9,45.6h0.9v5.7c0,1-0.1,1.7-0.3,2.2c-0.2,0.7-0.7,1.2-1.3,1.5c-0.6,0.4-1.3,0.5-2.2,0.5
			c-0.6,0-1.2-0.1-1.7-0.3c-0.5-0.2-0.9-0.4-1.2-0.7c-0.3-0.3-0.6-0.7-0.8-1.3h1c0.3,0.5,0.6,0.8,1.1,1.1c0.4,0.2,1,0.3,1.6,0.3
			c0.6,0,1.2-0.1,1.6-0.4c0.4-0.2,0.7-0.5,0.9-0.9c0.2-0.4,0.3-0.9,0.3-1.7v-0.4c-0.3,0.4-0.8,0.8-1.3,1c-0.5,0.2-1,0.4-1.6,0.4
			c-0.7,0-1.3-0.2-1.9-0.5c-0.6-0.3-1-0.8-1.3-1.3c-0.3-0.6-0.5-1.2-0.5-1.8c0-0.7,0.2-1.3,0.5-1.9c0.3-0.6,0.8-1,1.4-1.4
			c0.6-0.3,1.2-0.5,1.8-0.5c0.5,0,1,0.1,1.5,0.3c0.5,0.2,0.9,0.6,1.3,1.1V45.6z M140.2,46.3c-0.5,0-1,0.1-1.5,0.4
			c-0.4,0.3-0.8,0.6-1.1,1c-0.3,0.4-0.4,0.9-0.4,1.4c0,0.8,0.3,1.4,0.8,1.9c0.5,0.5,1.2,0.8,2,0.8c0.8,0,1.5-0.3,2-0.8
			c0.5-0.5,0.8-1.2,0.8-2c0-0.5-0.1-1-0.4-1.4c-0.2-0.4-0.6-0.8-1-1C141.1,46.4,140.7,46.3,140.2,46.3z"/>
		<path class="st2" d="M146.2,42.6c0.2,0,0.4,0.1,0.5,0.2c0.1,0.1,0.2,0.3,0.2,0.5c0,0.2-0.1,0.4-0.2,0.5c-0.1,0.1-0.3,0.2-0.5,0.2
			c-0.2,0-0.4-0.1-0.5-0.2c-0.1-0.1-0.2-0.3-0.2-0.5c0-0.2,0.1-0.4,0.2-0.5C145.8,42.7,146,42.6,146.2,42.6z M145.8,45.6h0.9v7.2
			h-0.9V45.6z"/>
		<path class="st2" d="M149.5,42.9h0.9v2.7h1.5v0.8h-1.5v6.4h-0.9v-6.4h-1.3v-0.8h1.3V42.9z"/>
		<path class="st2" d="M160.5,45.6v7.2h-0.9v-1.2c-0.4,0.5-0.8,0.8-1.3,1.1c-0.5,0.2-1,0.4-1.6,0.4c-1,0-1.9-0.4-2.6-1.1
			c-0.7-0.7-1.1-1.6-1.1-2.7c0-1,0.4-1.9,1.1-2.6c0.7-0.7,1.6-1.1,2.6-1.1c0.6,0,1.1,0.1,1.6,0.4c0.5,0.3,0.9,0.6,1.3,1.1v-1.3
			H160.5z M156.8,46.3c-0.5,0-1,0.1-1.4,0.4c-0.4,0.3-0.8,0.6-1,1.1c-0.3,0.5-0.4,0.9-0.4,1.4c0,0.5,0.1,1,0.4,1.4
			c0.3,0.5,0.6,0.8,1,1.1c0.4,0.3,0.9,0.4,1.4,0.4c0.5,0,1-0.1,1.4-0.4c0.5-0.3,0.8-0.6,1-1c0.2-0.4,0.4-0.9,0.4-1.5
			c0-0.8-0.3-1.5-0.8-2.1C158.3,46.6,157.6,46.3,156.8,46.3z"/>
		<path class="st2" d="M162.6,42.8h0.9v9.9h-0.9V42.8z"/>
		<path class="st2" d="M169.5,43.1h1v8.8h3.7v0.9h-4.7V43.1z"/>
		<path class="st2" d="M181.7,50.4l0.8,0.4c-0.3,0.5-0.5,0.9-0.9,1.2c-0.3,0.3-0.7,0.5-1.1,0.7c-0.4,0.2-0.9,0.2-1.4,0.2
			c-1.2,0-2.1-0.4-2.7-1.1c-0.7-0.8-1-1.6-1-2.6c0-0.9,0.3-1.7,0.8-2.4c0.7-0.9,1.7-1.4,2.8-1.4c1.2,0,2.2,0.5,2.9,1.4
			c0.5,0.7,0.8,1.5,0.8,2.4h-6.4c0,0.8,0.3,1.5,0.8,2c0.5,0.5,1.1,0.8,1.9,0.8c0.4,0,0.7-0.1,1.1-0.2c0.3-0.1,0.6-0.3,0.9-0.5
			C181.2,51.2,181.4,50.8,181.7,50.4z M181.7,48.4c-0.1-0.5-0.3-0.9-0.5-1.2c-0.2-0.3-0.5-0.5-0.9-0.7c-0.4-0.2-0.8-0.3-1.2-0.3
			c-0.7,0-1.3,0.2-1.8,0.7c-0.4,0.3-0.6,0.8-0.8,1.5H181.7z"/>
		<path class="st2" d="M191.7,45.6v7.2h-0.9v-1.2c-0.4,0.5-0.8,0.8-1.3,1.1c-0.5,0.2-1,0.4-1.6,0.4c-1,0-1.9-0.4-2.6-1.1
			c-0.7-0.7-1.1-1.6-1.1-2.7c0-1,0.4-1.9,1.1-2.6c0.7-0.7,1.6-1.1,2.6-1.1c0.6,0,1.1,0.1,1.6,0.4c0.5,0.3,0.9,0.6,1.3,1.1v-1.3
			H191.7z M188,46.3c-0.5,0-1,0.1-1.4,0.4c-0.4,0.3-0.8,0.6-1,1.1c-0.3,0.5-0.4,0.9-0.4,1.4c0,0.5,0.1,1,0.4,1.4
			c0.3,0.5,0.6,0.8,1,1.1c0.4,0.3,0.9,0.4,1.4,0.4c0.5,0,1-0.1,1.4-0.4c0.5-0.3,0.8-0.6,1-1c0.2-0.4,0.4-0.9,0.4-1.5
			c0-0.8-0.3-1.5-0.8-2.1C189.5,46.6,188.8,46.3,188,46.3z"/>
		<path class="st2" d="M193.5,45.6h0.9v1c0.3-0.4,0.6-0.7,0.9-0.9c0.3-0.2,0.6-0.3,1-0.3c0.3,0,0.5,0.1,0.8,0.2l-0.5,0.8
			c-0.2-0.1-0.4-0.1-0.5-0.1c-0.3,0-0.6,0.1-0.9,0.4c-0.3,0.3-0.5,0.6-0.7,1.2c-0.1,0.4-0.2,1.2-0.2,2.5v2.4h-0.9V45.6z"/>
		<path class="st2" d="M198.1,45.6h0.9v1.3c0.4-0.5,0.8-0.9,1.2-1.1c0.4-0.2,0.9-0.4,1.5-0.4c0.5,0,1,0.1,1.4,0.4
			c0.4,0.3,0.7,0.6,0.9,1.1c0.2,0.5,0.3,1.2,0.3,2.2v3.7h-0.9v-3.4c0-0.8,0-1.4-0.1-1.7c-0.1-0.5-0.3-0.8-0.6-1.1
			c-0.3-0.2-0.7-0.4-1.2-0.4c-0.6,0-1.1,0.2-1.5,0.6c-0.4,0.4-0.7,0.8-0.9,1.4c-0.1,0.4-0.1,1-0.1,1.9v2.6h-0.9V45.6z"/>
		<path class="st2" d="M206.7,42.6c0.2,0,0.4,0.1,0.5,0.2c0.1,0.1,0.2,0.3,0.2,0.5c0,0.2-0.1,0.4-0.2,0.5c-0.1,0.1-0.3,0.2-0.5,0.2
			c-0.2,0-0.4-0.1-0.5-0.2c-0.1-0.1-0.2-0.3-0.2-0.5c0-0.2,0.1-0.4,0.2-0.5C206.3,42.7,206.5,42.6,206.7,42.6z M206.2,45.6h0.9v7.2
			h-0.9V45.6z"/>
		<path class="st2" d="M209.2,45.6h0.9v1.3c0.4-0.5,0.8-0.9,1.2-1.1c0.4-0.2,0.9-0.4,1.5-0.4c0.5,0,1,0.1,1.4,0.4
			c0.4,0.3,0.7,0.6,0.9,1.1c0.2,0.5,0.3,1.2,0.3,2.2v3.7h-0.9v-3.4c0-0.8,0-1.4-0.1-1.7c-0.1-0.5-0.3-0.8-0.6-1.1
			c-0.3-0.2-0.7-0.4-1.2-0.4c-0.6,0-1.1,0.2-1.5,0.6c-0.4,0.4-0.7,0.8-0.9,1.4c-0.1,0.4-0.1,1-0.1,1.9v2.6h-0.9V45.6z"/>
		<path class="st2" d="M223.7,45.6h0.9v5.7c0,1-0.1,1.7-0.3,2.2c-0.2,0.7-0.7,1.2-1.3,1.5c-0.6,0.4-1.3,0.5-2.2,0.5
			c-0.6,0-1.2-0.1-1.7-0.3c-0.5-0.2-0.9-0.4-1.2-0.7c-0.3-0.3-0.6-0.7-0.8-1.3h1c0.3,0.5,0.6,0.8,1.1,1.1c0.4,0.2,1,0.3,1.6,0.3
			c0.6,0,1.2-0.1,1.6-0.4c0.4-0.2,0.7-0.5,0.9-0.9c0.2-0.4,0.3-0.9,0.3-1.7v-0.4c-0.3,0.4-0.8,0.8-1.3,1c-0.5,0.2-1,0.4-1.6,0.4
			c-0.7,0-1.3-0.2-1.9-0.5c-0.6-0.3-1-0.8-1.3-1.3c-0.3-0.6-0.5-1.2-0.5-1.8c0-0.7,0.2-1.3,0.5-1.9c0.3-0.6,0.8-1,1.4-1.4
			c0.6-0.3,1.2-0.5,1.8-0.5c0.5,0,1,0.1,1.5,0.3c0.5,0.2,0.9,0.6,1.3,1.1V45.6z M221,46.3c-0.5,0-1,0.1-1.5,0.4
			c-0.4,0.3-0.8,0.6-1.1,1c-0.3,0.4-0.4,0.9-0.4,1.4c0,0.8,0.3,1.4,0.8,1.9c0.5,0.5,1.2,0.8,2,0.8c0.8,0,1.5-0.3,2-0.8
			c0.5-0.5,0.8-1.2,0.8-2c0-0.5-0.1-1-0.4-1.4c-0.2-0.4-0.6-0.8-1-1C222,46.4,221.5,46.3,221,46.3z"/>
	</g>
</g>
</svg>
